<svg width="500" height="750" viewBox="0 0 500 750" xmlns="http://www.w3.org/2000/svg">
  <defs>
    <linearGradient id="bgGrad" x1="0%" y1="0%" x2="0%" y2="100%">
      <stop offset="0%" stop-color="#14213d" />
      <stop offset="100%" stop-color="#000000" />
    </linearGradient>
  </defs>
  
  <rect width="500" height="750" fill="url(#bgGrad)" />
  
  <!-- Outer border -->
  <rect x="20" y="20" width="460" height="710" fill="none" stroke="#E50914" stroke-opacity="0.3" stroke-width="2" />
  
  <!-- Background Art Pattern -->
  <g opacity="0.1">
      <path d="M0,250 C150,200 350,300 500,250" fill="none" stroke="#fff" stroke-width="2"/>
      <path d="M0,270 C150,220 350,320 500,270" fill="none" stroke="#fff" stroke-width="1"/>
    </g>
  
  <!-- Center Graphic Group -->
  <g transform="translate(0, 50)">
    <path d="M170 270 Q250 220 330 270 Q290 280 250 260 Q210 280 170 270" fill="#fff" stroke="#14213d" stroke-width="2"/>
           <path d="M230 255 L240 240 L250 250 L260 240 L270 255" fill="#fff"/>
           <circle cx="250" cy="310" r="40" fill="none" stroke="#E50914" stroke-width="3" stroke-dasharray="10,5"/>
  </g>
  
  <!-- Typography -->
  <g text-anchor="middle" font-family="'Outfit', 'Inter', sans-serif">
    <text x="250" y="580" fill="#ffffff" font-size="36" font-weight="900" letter-spacing="4">THE DARK KNIGHT</text>
    <text x="250" y="620" fill="#E50914" font-size="12" font-weight="700" letter-spacing="8" opacity="0.8">FIRST LOOK</text>
    <rect x="150" y="640" width="200" height="1" fill="#E50914" opacity="0.5" />
    <text x="250" y="675" fill="#cccccc" font-size="11" font-weight="500" letter-spacing="1" font-style="italic" opacity="0.7">
      Why So Serious?
    </text>
  </g>
</svg>