<svg width="500" height="750" viewBox="0 0 500 750" xmlns="http://www.w3.org/2000/svg">
  <defs>
    <linearGradient id="bgGrad" x1="0%" y1="0%" x2="0%" y2="100%">
      <stop offset="0%" stop-color="#1c1a27" />
      <stop offset="100%" stop-color="#09080d" />
    </linearGradient>
  </defs>
  
  <rect width="500" height="750" fill="url(#bgGrad)" />
  
  <!-- Outer border -->
  <rect x="20" y="20" width="460" height="710" fill="none" stroke="#D4AF37" stroke-opacity="0.3" stroke-width="2" />
  
  <!-- Background Art Pattern -->
  <g opacity="0.05">
      <path d="M 0,100 L 500,100 M 0,200 L 500,200 M 0,300 L 500,300 M 0,400 L 500,400 M 0,500 L 500,500" stroke="#fff" stroke-width="2"/>
    </g>
  
  <!-- Center Graphic Group -->
  <g transform="translate(0, 50)">
    <rect x="180" y="220" width="140" height="100" rx="10" fill="none" stroke="#D4AF37" stroke-width="4"/>
           <path d="M210 270 L240 270 L250 290 L260 270 L290 270" stroke="#D4AF37" stroke-width="4" fill="none"/>
           <circle cx="250" cy="250" r="12" fill="#E50914"/>
  </g>
  
  <!-- Typography -->
  <g text-anchor="middle" font-family="'Outfit', 'Inter', sans-serif">
    <text x="250" y="580" fill="#ffffff" font-size="36" font-weight="900" letter-spacing="4">MASTER</text>
    <text x="250" y="620" fill="#D4AF37" font-size="12" font-weight="700" letter-spacing="8" opacity="0.8">FIRST LOOK</text>
    <rect x="150" y="640" width="200" height="1" fill="#D4AF37" opacity="0.5" />
    <text x="250" y="675" fill="#cccccc" font-size="11" font-weight="500" letter-spacing="1" font-style="italic" opacity="0.7">
      The Class is in Session
    </text>
  </g>
</svg>